<?xml version="1.0" encoding="UTF-8" standalone="no"?>
<!-- Created with Inkscape (http://www.inkscape.org/) -->

<svg
   width="185.86014mm"
   height="131.04654mm"
   viewBox="0 0 185.86014 131.04654"
   version="1.1"
   id="svg1"
   xml:space="preserve"
   xmlns="http://www.w3.org/2000/svg"
   xmlns:svg="http://www.w3.org/2000/svg"><defs
     id="defs1" /><g
     id="layer1"
     transform="translate(-10.306261,-145.88469)"><rect
       style="fill:none;fill-rule:evenodd;stroke-width:0.226219"
       id="rect3"
       width="185.86014"
       height="131.04654"
       x="10.306262"
       y="145.88469" /><path
       id="path3"
       style="display:inline;fill:#008000"
       d="m 62.193395,274.78415 c -2.897974,-0.23576 -6.702397,-0.99833 -9.691573,-1.94261 -2.277232,-0.71938 -6.793328,-2.6845 -6.793328,-2.95603 0,-0.0605 0.296129,-2.14355 0.658064,-4.62912 l 0.658064,-4.5192 1.618535,-1.78976 c 0.890194,-0.98436 1.684021,-1.76057 1.76406,-1.72491 0.08004,0.0357 0.870026,0.39236 1.755528,0.79267 6.675256,3.01763 12.605759,3.69912 17.618409,2.02457 3.975934,-1.32822 6.946371,-4.32892 7.671093,-7.74924 0.466966,-2.20385 0.135849,-4.83616 -0.821578,-6.53138 -0.706629,-1.25116 -2.195215,-2.61616 -3.692135,-3.38561 -2.374321,-1.22045 -4.825217,-1.77795 -8.605332,-1.95742 l -2.126022,-0.10094 1.457662,-2.02446 c 0.801714,-1.11346 2.879052,-4.00916 4.616305,-6.4349 l 3.158643,-4.41043 1.486338,-0.24366 c 5.205098,-0.85329 8.847564,-3.63418 9.740802,-7.43676 0.477355,-2.03213 0.117024,-4.50457 -0.874949,-6.00355 l -0.37025,-0.55948 4.428195,-6.43494 c 2.435508,-3.53921 4.504579,-6.43494 4.597936,-6.43494 0.338184,0 2.624344,2.12718 3.652191,3.39821 2.208062,2.73048 3.497287,5.75187 3.969977,9.30392 0.21603,1.6234 0.0814,6.10692 -0.22364,7.44477 -1.444766,6.33743 -5.448258,10.6278 -12.299386,13.18071 -0.795324,0.29636 -1.463211,0.55489 -1.484195,0.57453 -0.02098,0.0196 0.564665,0.377 1.30144,0.79415 5.946007,3.36652 8.789649,8.449 8.783215,15.69835 -0.0044,4.94359 -1.186855,9.04089 -3.711087,12.85905 -1.353862,2.04785 -4.341524,5.01855 -6.467567,6.43085 -5.898984,3.91859 -13.027237,5.47927 -21.775415,4.76756 z m -7.515503,-61.79921 c -0.018,-0.49706 1.798577,-13.04726 1.908981,-13.18859 0.168443,-0.21563 3.298802,-1.44795 5.244471,-2.06458 1.410705,-0.44709 4.286652,-1.1874 4.353326,-1.12062 0.03099,0.031 -10.465608,15.13711 -11.180763,16.09068 -0.176428,0.23524 -0.323135,0.36264 -0.326015,0.28311 z" /><path
       id="path4"
       style="display:inline;fill:#000000;fill-rule:evenodd;stroke-width:0.855002"
       d="m 548.19532,564.07227 -11.36524,0.41797 c -6.25002,0.23018 -11.43047,0.48711 -11.51367,0.57031 -0.15122,0.15121 4.43817,12.80565 18.37891,50.67188 l 7.41406,20.13672 22.0918,0.008 22.0918,0.008 25.97461,-35.30664 c 14.28526,-19.41872 26.06241,-35.53838 26.17187,-35.82031 0.10947,-0.28193 -5.67259,-0.51172 -12.84766,-0.51172 h -13.04492 l -17.90234,16.49609 c -24.41158,22.49296 -27.75343,25.50835 -27.96875,25.23633 -0.10235,-0.1293 -6.32804,-9.61101 -13.83399,-21.07031 z m -0.0723,78.69336 c -43.23447,-0.003 -102.7403,0.80623 -154.64453,2.10547 -57.59921,1.4418 -70.10542,3.30432 -79.83398,11.88672 -6.13209,5.40965 -11.90931,13.52628 -37.08594,52.10742 -9.34984,14.32788 -20.57475,31.24405 -24.94532,37.5918 -14.00823,20.34535 -73.2469,105.43216 -75.57226,108.54688 -2.82091,3.7785 -4.09466,3.90846 -4.58008,0.46875 -0.19696,-1.39569 -0.63665,-33.83944 -0.97656,-72.09766 -0.66147,-74.45039 -1.40844,-110.49189 -2.46875,-119.11524 -1.22968,-10.00094 -4.06152,-14.67212 -10.19336,-16.80859 -2.804,-0.97698 -5.06913,-1.1014 -19.29883,-1.0625 -26.01014,0.0711 -47.067191,1.76673 -51.703126,4.16406 -2.284041,1.18113 -4.589729,4.73872 -5.646485,8.71485 -1.486569,5.59334 -1.990421,20.49848 -2.324219,68.57812 -0.178975,25.77914 -0.594641,57.75462 -0.921875,71.05469 -0.327235,13.30007 -0.997035,47.28914 -1.488281,75.53125 -0.491246,28.24212 -1.196122,60.78771 -1.568359,72.32422 -0.372233,11.5365 -0.549224,25.37407 -0.392578,30.75 0.247779,8.50346 0.483017,10.34117 1.8125,14.13086 1.491217,4.25071 3.652309,7.73048 6.091797,9.81057 2.006571,1.7109 7.465499,3.4972 12.234375,4.0039 6.433251,0.6833 10.966601,0.6914 27.613281,0.045 15.9692,-0.6203 25.64159,-1.7749 30.68555,-3.6621 4.89066,-1.8298 9.58312,-5.2623 16.41211,-12.00586 11.80699,-11.65929 20.72296,-23.31272 57.12695,-74.66211 12.71962,-17.94159 30.67418,-43.17957 39.90039,-56.08399 19.54539,-27.33753 41.33993,-58.38194 68.02344,-96.90234 31.12693,-44.93495 31.96022,-45.98209 38.00781,-47.73243 2.68605,-0.77742 11.5363,-1.0126 56.91797,-1.51367 68.47383,-0.75593 119.82185,-0.75561 128.94336,0 8.43397,0.69866 12.61544,1.73979 19.27735,4.80469 11.6804,5.37371 24.12107,16.16862 27.9414,24.24414 2.46648,5.2137 3.31223,10.24271 3.32813,19.80469 0.0286,17.16552 -3.16464,32.98197 -10.20313,50.54687 -3.73577,9.32278 -13.55754,31.60586 -17.47851,39.6543 -12.99755,26.67967 -36.9648,46.22457 -70.97852,57.88086 -13.63698,4.6733 -24.25826,6.3095 -47.39453,7.30078 -15.009,0.64306 -68.64957,0.32182 -72.99219,-0.4375 -1.38735,-0.24259 -1.9414,-0.66167 -1.9414,-1.4707 0,-0.62238 3.9281,-11.1385 8.72851,-23.36914 20.29665,-51.71237 30.48857,-81.1616 42.41406,-122.54883 6.14172,-21.31475 9.1478,-33.73077 9.57422,-39.53906 0.43509,-5.92639 -0.16189,-7.20346 -2.74218,-5.86914 -4.28603,2.21639 -6.1963,4.94616 -65.23633,93.17578 l -6.39258,9.55273 -1.59375,7.15235 c -2.62161,11.77336 -6.33039,19.7137 -13.32031,28.50976 -4.48553,5.64457 -9.84856,10.38634 -16.19727,14.32227 -5.24804,3.25355 -17.86958,9.27384 -17.86958,9.27384 0,0 5.69269,3.66343 7.49458,5.11678 11.81546,9.52993 18.9087,19.66094 23.08203,32.96485 2.43723,7.76949 2.98174,13.35261 2.63867,27.03711 -0.26808,10.69337 -0.51961,13.18612 -1.86914,18.53125 -2.04475,8.09866 -5.58688,17.06247 -9.30273,23.54297 -1.64767,2.87356 -2.9961,5.38991 -2.9961,5.59179 0,0.63049 65.33879,-1.05651 85.08594,-2.19726 49.50056,-2.85955 82.2019,-9.30071 115.83399,-22.8125 36.66731,-14.7312 64.82848,-35.80752 91.94531,-68.81446 25.975,-31.61709 45.62656,-68.65195 58.14844,-109.58203 8.04202,-26.28694 11.29769,-46.48643 10.63086,-65.96094 -0.8149,-23.79817 -7.33972,-38.47005 -23.25586,-52.28906 -16.03764,-13.92456 -41.40088,-25.65265 -66.41602,-30.71094 -17.25164,-3.48843 -18.84398,-3.57122 -68.06836,-3.57422 z m -257.64062,301.79493 -2.83399,4.38086 c -5.69632,8.80561 -9.22419,14.51946 -12.46875,20.20117 -1.56029,2.7323 -3.43144,6.41713 -3.43164,6.75586 -2.8e-4,0.45586 0.93589,-0.0179 2.80273,-1.41992 3.67097,-2.75702 7.90186,-6.78279 9.76563,-9.29102 2.4167,-3.25234 4.52571,-7.77975 5.55859,-11.92969 0.66106,-2.65623 0.87852,-4.86693 0.71094,-7.22851 z"
       transform="scale(0.26458333)" /></g></svg>
